<svg width="208" height="208" viewBox="0 0 208 208" fill="none" xmlns="http://www.w3.org/2000/svg">
<g id="Memo">
<g id="Subtract">
<path d="M132.696 15.1831C131.477 13.9641 129.824 13.2793 128.1 13.2793H41.8539C36.8281 13.2793 32.7539 17.3535 32.7539 22.3793V185.621C32.7539 190.646 36.8281 194.721 41.8539 194.721H166.146C171.172 194.721 175.246 190.646 175.246 185.621V60.4255C175.246 58.7016 174.561 57.0483 173.342 55.8293L132.696 15.1831Z" fill="url(#paint0_linear_1146_2320)"/>
<path d="M132.696 15.1831C131.477 13.9641 129.824 13.2793 128.1 13.2793H41.8539C36.8281 13.2793 32.7539 17.3535 32.7539 22.3793V185.621C32.7539 190.646 36.8281 194.721 41.8539 194.721H166.146C171.172 194.721 175.246 190.646 175.246 185.621V60.4255C175.246 58.7016 174.561 57.0483 173.342 55.8293L132.696 15.1831Z" fill="url(#paint1_linear_1146_2320)"/>
<path d="M132.696 15.1831C131.477 13.9641 129.824 13.2793 128.1 13.2793H41.8539C36.8281 13.2793 32.7539 17.3535 32.7539 22.3793V185.621C32.7539 190.646 36.8281 194.721 41.8539 194.721H166.146C171.172 194.721 175.246 190.646 175.246 185.621V60.4255C175.246 58.7016 174.561 57.0483 173.342 55.8293L132.696 15.1831Z" fill="url(#paint2_linear_1146_2320)"/>
<path d="M132.696 15.1831C131.477 13.9641 129.824 13.2793 128.1 13.2793H41.8539C36.8281 13.2793 32.7539 17.3535 32.7539 22.3793V185.621C32.7539 190.646 36.8281 194.721 41.8539 194.721H166.146C171.172 194.721 175.246 190.646 175.246 185.621V60.4255C175.246 58.7016 174.561 57.0483 173.342 55.8293L132.696 15.1831Z" fill="url(#paint3_linear_1146_2320)"/>
<path d="M132.696 15.1831C131.477 13.9641 129.824 13.2793 128.1 13.2793H41.8539C36.8281 13.2793 32.7539 17.3535 32.7539 22.3793V185.621C32.7539 190.646 36.8281 194.721 41.8539 194.721H166.146C171.172 194.721 175.246 190.646 175.246 185.621V60.4255C175.246 58.7016 174.561 57.0483 173.342 55.8293L132.696 15.1831Z" fill="url(#paint4_linear_1146_2320)"/>
<path d="M132.696 15.1831C131.477 13.9641 129.824 13.2793 128.1 13.2793H41.8539C36.8281 13.2793 32.7539 17.3535 32.7539 22.3793V185.621C32.7539 190.646 36.8281 194.721 41.8539 194.721H166.146C171.172 194.721 175.246 190.646 175.246 185.621V60.4255C175.246 58.7016 174.561 57.0483 173.342 55.8293L132.696 15.1831Z" fill="url(#paint5_linear_1146_2320)"/>
</g>
<g id="Union">
<path d="M119.515 15.5778C119.515 14.2687 119.963 13.4326 119.113 13.2927C119.921 13.3358 120.978 13.048 121.722 13.2926C128.857 13.2927 129.048 13.1496 129.796 13.762C131.04 14.0413 130.391 15.4291 130.413 15.4472L170.93 61.6134C171.078 61.7373 171.219 61.8657 171.353 61.9982C172.015 62.6505 172.513 63.4022 172.825 64.2079C173.072 64.8486 173.201 65.5235 173.201 66.2096V66.62C173.201 65.1107 171.899 64.2079 170.93 64.2079H128.822C123.682 64.2079 119.515 55.2497 119.515 50.9419V15.5778Z" fill="url(#paint6_radial_1146_2320)"/>
<path d="M119.515 15.5778C119.515 14.2687 119.963 13.4326 119.113 13.2927C119.921 13.3358 120.978 13.048 121.722 13.2926C128.857 13.2927 129.048 13.1496 129.796 13.762C131.04 14.0413 130.391 15.4291 130.413 15.4472L170.93 61.6134C171.078 61.7373 171.219 61.8657 171.353 61.9982C172.015 62.6505 172.513 63.4022 172.825 64.2079C173.072 64.8486 173.201 65.5235 173.201 66.2096V66.62C173.201 65.1107 171.899 64.2079 170.93 64.2079H128.822C123.682 64.2079 119.515 55.2497 119.515 50.9419V15.5778Z" fill="url(#paint7_radial_1146_2320)"/>
<path d="M119.515 15.5778C119.515 14.2687 119.963 13.4326 119.113 13.2927C119.921 13.3358 120.978 13.048 121.722 13.2926C128.857 13.2927 129.048 13.1496 129.796 13.762C131.04 14.0413 130.391 15.4291 130.413 15.4472L170.93 61.6134C171.078 61.7373 171.219 61.8657 171.353 61.9982C172.015 62.6505 172.513 63.4022 172.825 64.2079C173.072 64.8486 173.201 65.5235 173.201 66.2096V66.62C173.201 65.1107 171.899 64.2079 170.93 64.2079H128.822C123.682 64.2079 119.515 55.2497 119.515 50.9419V15.5778Z" fill="url(#paint8_radial_1146_2320)"/>
<path d="M119.515 15.5778C119.515 14.2687 119.963 13.4326 119.113 13.2927C119.921 13.3358 120.978 13.048 121.722 13.2926C128.857 13.2927 129.048 13.1496 129.796 13.762C131.04 14.0413 130.391 15.4291 130.413 15.4472L170.93 61.6134C171.078 61.7373 171.219 61.8657 171.353 61.9982C172.015 62.6505 172.513 63.4022 172.825 64.2079C173.072 64.8486 173.201 65.5235 173.201 66.2096V66.62C173.201 65.1107 171.899 64.2079 170.93 64.2079H128.822C123.682 64.2079 119.515 55.2497 119.515 50.9419V15.5778Z" fill="url(#paint9_radial_1146_2320)"/>
<path d="M119.515 15.5778C119.515 14.2687 119.963 13.4326 119.113 13.2927C119.921 13.3358 120.978 13.048 121.722 13.2926C128.857 13.2927 129.048 13.1496 129.796 13.762C131.04 14.0413 130.391 15.4291 130.413 15.4472L170.93 61.6134C171.078 61.7373 171.219 61.8657 171.353 61.9982C172.015 62.6505 172.513 63.4022 172.825 64.2079C173.072 64.8486 173.201 65.5235 173.201 66.2096V66.62C173.201 65.1107 171.899 64.2079 170.93 64.2079H128.822C123.682 64.2079 119.515 55.2497 119.515 50.9419V15.5778Z" fill="url(#paint10_radial_1146_2320)"/>
<path d="M119.515 15.5778C119.515 14.2687 119.963 13.4326 119.113 13.2927C119.921 13.3358 120.978 13.048 121.722 13.2926C128.857 13.2927 129.048 13.1496 129.796 13.762C131.04 14.0413 130.391 15.4291 130.413 15.4472L170.93 61.6134C171.078 61.7373 171.219 61.8657 171.353 61.9982C172.015 62.6505 172.513 63.4022 172.825 64.2079C173.072 64.8486 173.201 65.5235 173.201 66.2096V66.62C173.201 65.1107 171.899 64.2079 170.93 64.2079H128.822C123.682 64.2079 119.515 55.2497 119.515 50.9419V15.5778Z" fill="url(#paint11_radial_1146_2320)"/>
</g>
<g id="Union_2">
<path d="M130.254 15.2593C130.254 13.9502 129.227 13.4319 128.515 13.292C129.192 13.3351 129.853 13.4837 130.476 13.7284C131.277 14.0429 132.015 14.5163 132.642 15.1286C132.66 15.1465 132.679 15.1645 132.697 15.1826L173.343 55.8288C173.467 55.9528 173.585 56.0811 173.698 56.2137C174.252 56.8659 174.67 57.6177 174.931 58.4233C175.138 59.0641 175.246 59.739 175.246 60.425V60.8354C175.246 59.3261 174.155 58.4233 173.343 58.4233H138.054C133.747 58.4233 130.254 54.9311 130.254 50.6234V15.2593Z" fill="url(#paint12_linear_1146_2320)"/>
<path d="M130.254 15.2593C130.254 13.9502 129.227 13.4319 128.515 13.292C129.192 13.3351 129.853 13.4837 130.476 13.7284C131.277 14.0429 132.015 14.5163 132.642 15.1286C132.66 15.1465 132.679 15.1645 132.697 15.1826L173.343 55.8288C173.467 55.9528 173.585 56.0811 173.698 56.2137C174.252 56.8659 174.67 57.6177 174.931 58.4233C175.138 59.0641 175.246 59.739 175.246 60.425V60.8354C175.246 59.3261 174.155 58.4233 173.343 58.4233H138.054C133.747 58.4233 130.254 54.9311 130.254 50.6234V15.2593Z" fill="url(#paint13_linear_1146_2320)"/>
<path d="M130.254 15.2593C130.254 13.9502 129.227 13.4319 128.515 13.292C129.192 13.3351 129.853 13.4837 130.476 13.7284C131.277 14.0429 132.015 14.5163 132.642 15.1286C132.66 15.1465 132.679 15.1645 132.697 15.1826L173.343 55.8288C173.467 55.9528 173.585 56.0811 173.698 56.2137C174.252 56.8659 174.67 57.6177 174.931 58.4233C175.138 59.0641 175.246 59.739 175.246 60.425V60.8354C175.246 59.3261 174.155 58.4233 173.343 58.4233H138.054C133.747 58.4233 130.254 54.9311 130.254 50.6234V15.2593Z" fill="url(#paint14_linear_1146_2320)"/>
<path d="M130.254 15.2593C130.254 13.9502 129.227 13.4319 128.515 13.292C129.192 13.3351 129.853 13.4837 130.476 13.7284C131.277 14.0429 132.015 14.5163 132.642 15.1286C132.66 15.1465 132.679 15.1645 132.697 15.1826L173.343 55.8288C173.467 55.9528 173.585 56.0811 173.698 56.2137C174.252 56.8659 174.67 57.6177 174.931 58.4233C175.138 59.0641 175.246 59.739 175.246 60.425V60.8354C175.246 59.3261 174.155 58.4233 173.343 58.4233H138.054C133.747 58.4233 130.254 54.9311 130.254 50.6234V15.2593Z" fill="url(#paint15_radial_1146_2320)" fill-opacity="0.8"/>
<path d="M130.254 15.2593C130.254 13.9502 129.227 13.4319 128.515 13.292C129.192 13.3351 129.853 13.4837 130.476 13.7284C131.277 14.0429 132.015 14.5163 132.642 15.1286C132.66 15.1465 132.679 15.1645 132.697 15.1826L173.343 55.8288C173.467 55.9528 173.585 56.0811 173.698 56.2137C174.252 56.8659 174.67 57.6177 174.931 58.4233C175.138 59.0641 175.246 59.739 175.246 60.425V60.8354C175.246 59.3261 174.155 58.4233 173.343 58.4233H138.054C133.747 58.4233 130.254 54.9311 130.254 50.6234V15.2593Z" fill="url(#paint16_radial_1146_2320)" fill-opacity="0.8"/>
</g>
<path id="Union_3" d="M130.254 15.2593C130.254 13.9502 129.227 13.4319 128.515 13.292C129.192 13.3351 129.853 13.4837 130.476 13.7284C131.277 14.0429 132.015 14.5163 132.642 15.1286C132.66 15.1465 132.679 15.1645 132.697 15.1826L173.343 55.8288C173.467 55.9528 173.585 56.0811 173.698 56.2137C174.252 56.8659 174.67 57.6177 174.931 58.4233C175.138 59.0641 175.246 59.739 175.246 60.425V60.8354C175.246 59.3261 174.155 58.4233 173.343 58.4233H138.054C133.747 58.4233 130.254 54.9311 130.254 50.6234V15.2593Z" fill="url(#paint17_linear_1146_2320)"/>
<path id="Union_4" fill-rule="evenodd" clip-rule="evenodd" d="M59.25 77.9746C58.976 77.9746 58.7539 78.1967 58.7539 78.4707V83.9277C58.7539 84.2017 58.976 84.4238 59.25 84.4238H148.699C148.973 84.4238 149.195 84.2017 149.195 83.9277V78.4707C149.195 78.1967 148.973 77.9746 148.699 77.9746H59.25ZM59.25 97.4746C58.976 97.4746 58.7539 97.6967 58.7539 97.9707V103.428C58.7539 103.702 58.976 103.924 59.25 103.924H148.699C148.973 103.924 149.195 103.702 149.195 103.428V97.9707C149.195 97.6967 148.973 97.4746 148.699 97.4746H59.25ZM58.7539 117.471C58.7539 117.197 58.976 116.975 59.25 116.975H148.699C148.973 116.975 149.195 117.197 149.195 117.471V122.928C149.195 123.202 148.973 123.424 148.699 123.424H59.25C58.976 123.424 58.7539 123.202 58.7539 122.928V117.471ZM59.25 136.475C58.976 136.475 58.7539 136.697 58.7539 136.971V142.428C58.7539 142.702 58.976 142.924 59.25 142.924H116.656C116.93 142.924 117.152 142.702 117.152 142.428V136.971C117.152 136.697 116.93 136.475 116.656 136.475H59.25Z" fill="url(#paint18_linear_1146_2320)"/>
<g id="Rectangle 1095">
<path d="M169.354 82.5075C169.994 81.9821 170.94 82.0754 171.465 82.7159L194.609 110.928C195.134 111.569 195.041 112.514 194.401 113.039L96.1263 193.658L71.0797 163.127L169.354 82.5075Z" fill="url(#paint19_radial_1146_2320)"/>
<path d="M169.354 82.5075C169.994 81.9821 170.94 82.0754 171.465 82.7159L194.609 110.928C195.134 111.569 195.041 112.514 194.401 113.039L96.1263 193.658L71.0797 163.127L169.354 82.5075Z" fill="url(#paint20_linear_1146_2320)"/>
<path d="M169.354 82.5075C169.994 81.9821 170.94 82.0754 171.465 82.7159L194.609 110.928C195.134 111.569 195.041 112.514 194.401 113.039L96.1263 193.658L71.0797 163.127L169.354 82.5075Z" fill="url(#paint21_linear_1146_2320)"/>
<path d="M169.354 82.5075C169.994 81.9821 170.94 82.0754 171.465 82.7159L194.609 110.928C195.134 111.569 195.041 112.514 194.401 113.039L96.1263 193.658L71.0797 163.127L169.354 82.5075Z" fill="url(#paint22_radial_1146_2320)"/>
</g>
<g id="Rectangle 1096">
<path d="M63.977 193.664C63.8734 194.195 64.2792 194.689 64.8201 194.69L93.1185 194.762C93.9327 194.764 94.7309 194.535 95.4204 194.102L96.1274 193.658L71.0808 163.126L70.5983 163.606C69.987 164.213 69.572 164.99 69.407 165.836L63.977 193.664Z" fill="url(#paint23_linear_1146_2320)"/>
<path d="M63.977 193.664C63.8734 194.195 64.2792 194.689 64.8201 194.69L93.1185 194.762C93.9327 194.764 94.7309 194.535 95.4204 194.102L96.1274 193.658L71.0808 163.126L70.5983 163.606C69.987 164.213 69.572 164.99 69.407 165.836L63.977 193.664Z" fill="url(#paint24_linear_1146_2320)"/>
<path d="M63.977 193.664C63.8734 194.195 64.2792 194.689 64.8201 194.69L93.1185 194.762C93.9327 194.764 94.7309 194.535 95.4204 194.102L96.1274 193.658L71.0808 163.126L70.5983 163.606C69.987 164.213 69.572 164.99 69.407 165.836L63.977 193.664Z" fill="url(#paint25_linear_1146_2320)"/>
</g>
<g id="Intersect">
<path d="M175.585 128.473L190.566 116.184C193.324 113.922 193.726 109.852 191.463 107.093L174.61 86.55C172.347 83.7918 168.277 83.3901 165.519 85.6527L150.539 97.9418L175.585 128.473Z" fill="url(#paint26_linear_1146_2320)"/>
<path d="M175.585 128.473L190.566 116.184C193.324 113.922 193.726 109.852 191.463 107.093L174.61 86.55C172.347 83.7918 168.277 83.3901 165.519 85.6527L150.539 97.9418L175.585 128.473Z" fill="url(#paint27_linear_1146_2320)"/>
<path d="M175.585 128.473L190.566 116.184C193.324 113.922 193.726 109.852 191.463 107.093L174.61 86.55C172.347 83.7918 168.277 83.3901 165.519 85.6527L150.539 97.9418L175.585 128.473Z" fill="url(#paint28_radial_1146_2320)"/>
</g>
<g id="Intersect_2">
<path d="M135.521 110.262L150.54 97.9414L175.586 128.473L160.568 140.793L135.521 110.262Z" fill="url(#paint29_linear_1146_2320)"/>
<path d="M135.521 110.262L150.54 97.9414L175.586 128.473L160.568 140.793L135.521 110.262Z" fill="url(#paint30_linear_1146_2320)"/>
</g>
<path id="Intersect_3" d="M64.8209 194.691C64.2799 194.689 63.8741 194.195 63.9777 193.664L65.8824 183.902L74.7532 194.716L64.8209 194.691Z" fill="url(#paint31_linear_1146_2320)"/>
</g>
<defs>
<linearGradient id="paint0_linear_1146_2320" x1="104" y1="13.2793" x2="104" y2="200.739" gradientUnits="userSpaceOnUse">
<stop stop-color="#E4DCEA"/>
<stop offset="1" stop-color="#CEC1D5"/>
</linearGradient>
<linearGradient id="paint1_linear_1146_2320" x1="104" y1="13.2793" x2="104" y2="14.8704" gradientUnits="userSpaceOnUse">
<stop stop-color="#F3F0F6"/>
<stop offset="1" stop-color="#F3F0F6" stop-opacity="0"/>
</linearGradient>
<linearGradient id="paint2_linear_1146_2320" x1="175.246" y1="58.6433" x2="173.903" y2="58.6433" gradientUnits="userSpaceOnUse">
<stop stop-color="#F3F0F6"/>
<stop offset="1" stop-color="#F3F0F6" stop-opacity="0"/>
</linearGradient>
<linearGradient id="paint3_linear_1146_2320" x1="104" y1="194.721" x2="104" y2="193.358" gradientUnits="userSpaceOnUse">
<stop stop-color="#B9A6CC"/>
<stop offset="1" stop-color="#B9A6CC" stop-opacity="0"/>
</linearGradient>
<linearGradient id="paint4_linear_1146_2320" x1="30.4283" y1="58.548" x2="40.4478" y2="58.548" gradientUnits="userSpaceOnUse">
<stop stop-color="#CEC4D9"/>
<stop offset="1" stop-color="#CEC4D9" stop-opacity="0"/>
</linearGradient>
<linearGradient id="paint5_linear_1146_2320" x1="32.7539" y1="116.031" x2="34.1046" y2="116.031" gradientUnits="userSpaceOnUse">
<stop stop-color="#B5B0BB"/>
<stop offset="1" stop-color="#B5B0BB" stop-opacity="0"/>
</linearGradient>
<radialGradient id="paint6_radial_1146_2320" cx="0" cy="0" r="1" gradientUnits="userSpaceOnUse" gradientTransform="translate(130.842 46.6728) rotate(-90) scale(14.9691 4.69959)">
<stop stop-color="#D2C5DF"/>
<stop offset="0.204729" stop-color="#D2C5DF" stop-opacity="0.796367"/>
<stop offset="1" stop-color="#D2C5DF" stop-opacity="0"/>
</radialGradient>
<radialGradient id="paint7_radial_1146_2320" cx="0" cy="0" r="1" gradientUnits="userSpaceOnUse" gradientTransform="translate(131.181 34.1514) rotate(-90) scale(16.0828 5.04926)">
<stop stop-color="#D2C5DF"/>
<stop offset="0.204729" stop-color="#D2C5DF" stop-opacity="0.796367"/>
<stop offset="1" stop-color="#D2C5DF" stop-opacity="0"/>
</radialGradient>
<radialGradient id="paint8_radial_1146_2320" cx="0" cy="0" r="1" gradientUnits="userSpaceOnUse" gradientTransform="translate(131.181 27.0654) rotate(-90) scale(11.2261 3.52448)">
<stop stop-color="#D2C5DF"/>
<stop offset="0.204729" stop-color="#D2C5DF" stop-opacity="0.796367"/>
<stop offset="1" stop-color="#D2C5DF" stop-opacity="0"/>
</radialGradient>
<radialGradient id="paint9_radial_1146_2320" cx="0" cy="0" r="1" gradientUnits="userSpaceOnUse" gradientTransform="translate(142.604 57.7682) rotate(-1.02303) scale(12.292 3.85911)">
<stop stop-color="#D2C5DF"/>
<stop offset="0.204729" stop-color="#D2C5DF" stop-opacity="0.796367"/>
<stop offset="1" stop-color="#D2C5DF" stop-opacity="0"/>
</radialGradient>
<radialGradient id="paint10_radial_1146_2320" cx="0" cy="0" r="1" gradientUnits="userSpaceOnUse" gradientTransform="translate(153.797 57.1098) scale(15.4722 4.85756)">
<stop stop-color="#D2C5DF"/>
<stop offset="0.204729" stop-color="#D2C5DF" stop-opacity="0.796367"/>
<stop offset="1" stop-color="#D2C5DF" stop-opacity="0"/>
</radialGradient>
<radialGradient id="paint11_radial_1146_2320" cx="0" cy="0" r="1" gradientUnits="userSpaceOnUse" gradientTransform="translate(162.904 57) scale(9.32723 2.92832)">
<stop stop-color="#D2C5DF"/>
<stop offset="0.204729" stop-color="#D2C5DF" stop-opacity="0.796367"/>
<stop offset="1" stop-color="#D2C5DF" stop-opacity="0"/>
</radialGradient>
<linearGradient id="paint12_linear_1146_2320" x1="133.504" y1="56.5952" x2="150.668" y2="39.4311" gradientUnits="userSpaceOnUse">
<stop stop-color="#CAC2CE"/>
<stop offset="1" stop-color="#BDB4C1"/>
</linearGradient>
<linearGradient id="paint13_linear_1146_2320" x1="151.881" y1="60.0171" x2="151.881" y2="55.3995" gradientUnits="userSpaceOnUse">
<stop stop-color="#C0ACD5"/>
<stop offset="1" stop-color="#C0ACD5" stop-opacity="0"/>
</linearGradient>
<linearGradient id="paint14_linear_1146_2320" x1="129.48" y1="31.6415" x2="131.477" y2="31.6415" gradientUnits="userSpaceOnUse">
<stop stop-color="#A19CA7"/>
<stop offset="1" stop-color="#A19CA7" stop-opacity="0"/>
</linearGradient>
<radialGradient id="paint15_radial_1146_2320" cx="0" cy="0" r="1" gradientUnits="userSpaceOnUse" gradientTransform="translate(130.558 54.0309) rotate(71.3377) scale(4.04676 1.56229)">
<stop stop-color="#A19CA7"/>
<stop offset="1" stop-color="#A19CA7" stop-opacity="0"/>
</radialGradient>
<radialGradient id="paint16_radial_1146_2320" cx="0" cy="0" r="1" gradientUnits="userSpaceOnUse" gradientTransform="translate(130.914 55.6559) rotate(36.9314) scale(4.73281 1.82715)">
<stop stop-color="#9D9CA7"/>
<stop offset="1" stop-color="#A19CA7" stop-opacity="0"/>
</radialGradient>
<linearGradient id="paint17_linear_1146_2320" x1="154.528" y1="36.0796" x2="146.352" y2="44.3328" gradientUnits="userSpaceOnUse">
<stop offset="0.119171" stop-color="#DBDADC"/>
<stop offset="0.577307" stop-color="#CBC7D0" stop-opacity="0"/>
</linearGradient>
<linearGradient id="paint18_linear_1146_2320" x1="58.7539" y1="139.699" x2="117.152" y2="139.699" gradientUnits="userSpaceOnUse">
<stop stop-color="#9C96A2"/>
<stop offset="1" stop-color="#9A95A1"/>
</linearGradient>
<radialGradient id="paint19_radial_1146_2320" cx="0" cy="0" r="1" gradientUnits="userSpaceOnUse" gradientTransform="translate(83.4236 179.216) rotate(-40.0074) scale(84.6962 52.5369)">
<stop stop-color="#FF9130"/>
<stop offset="1" stop-color="#F3633D"/>
</radialGradient>
<linearGradient id="paint20_linear_1146_2320" x1="105.003" y1="133.205" x2="111.065" y2="140.294" gradientUnits="userSpaceOnUse">
<stop stop-color="#EE9B6A"/>
<stop offset="1" stop-color="#EE9B6A" stop-opacity="0"/>
</linearGradient>
<linearGradient id="paint21_linear_1146_2320" x1="148.468" y1="153.181" x2="141.094" y2="145.692" gradientUnits="userSpaceOnUse">
<stop stop-color="#E66A62"/>
<stop offset="1" stop-color="#E66A62" stop-opacity="0"/>
</linearGradient>
<radialGradient id="paint22_radial_1146_2320" cx="0" cy="0" r="1" gradientUnits="userSpaceOnUse" gradientTransform="translate(82.4315 178.307) rotate(-39.2242) scale(78.2204 17.4915)">
<stop stop-color="#FF994D"/>
<stop offset="1" stop-color="#FF994D" stop-opacity="0"/>
</radialGradient>
<linearGradient id="paint23_linear_1146_2320" x1="73.4747" y1="178.64" x2="82.9796" y2="197.428" gradientUnits="userSpaceOnUse">
<stop stop-color="#D8A587"/>
<stop offset="1" stop-color="#CE7A98"/>
</linearGradient>
<linearGradient id="paint24_linear_1146_2320" x1="86.6534" y1="180.756" x2="84.1859" y2="182.807" gradientUnits="userSpaceOnUse">
<stop offset="0.207411" stop-color="#FFC09F"/>
<stop offset="1" stop-color="#FCB196" stop-opacity="0"/>
</linearGradient>
<linearGradient id="paint25_linear_1146_2320" x1="63.3626" y1="176.966" x2="72.3901" y2="178.668" gradientUnits="userSpaceOnUse">
<stop stop-color="#DEBCA3"/>
<stop offset="1" stop-color="#DEBCA3" stop-opacity="0"/>
</linearGradient>
<linearGradient id="paint26_linear_1146_2320" x1="186.078" y1="98.2037" x2="166.682" y2="113.869" gradientUnits="userSpaceOnUse">
<stop stop-color="#FF6153"/>
<stop offset="1" stop-color="#FF6154"/>
</linearGradient>
<linearGradient id="paint27_linear_1146_2320" x1="154.898" y1="93.5038" x2="167.558" y2="107.735" gradientUnits="userSpaceOnUse">
<stop stop-color="#F1553E"/>
<stop offset="1" stop-color="#F1553E" stop-opacity="0"/>
</linearGradient>
<radialGradient id="paint28_radial_1146_2320" cx="0" cy="0" r="1" gradientUnits="userSpaceOnUse" gradientTransform="translate(182.066 101.865) rotate(140.636) scale(5.89982 13.4026)">
<stop offset="0.177419" stop-color="#FF786D"/>
<stop offset="1" stop-color="#FF786D" stop-opacity="0"/>
</radialGradient>
<linearGradient id="paint29_linear_1146_2320" x1="143.264" y1="104.526" x2="159.356" y2="122.341" gradientUnits="userSpaceOnUse">
<stop stop-color="#C5C4CB"/>
<stop offset="1" stop-color="#E8DEFA"/>
</linearGradient>
<linearGradient id="paint30_linear_1146_2320" x1="168.159" y1="137.274" x2="159.201" y2="126.653" gradientUnits="userSpaceOnUse">
<stop stop-color="#C9B9E0"/>
<stop offset="1" stop-color="#C9B9E0" stop-opacity="0"/>
</linearGradient>
<linearGradient id="paint31_linear_1146_2320" x1="65.3465" y1="188.386" x2="69.2703" y2="195.134" gradientUnits="userSpaceOnUse">
<stop stop-color="#461E49"/>
<stop offset="1" stop-color="#450F51"/>
</linearGradient>
</defs>
</svg>
