<svg width="293" height="426" viewBox="0 0 293 426" fill="none" xmlns="http://www.w3.org/2000/svg">
<path d="M214.5 425C212.667 411.333 210.9 379.6 208.5 362C205.5 340 213 301 214.5 291.5C216 282 223.5 222.692 228.5 210C233.5 197.308 238.5 167.5 239.5 163.5C240.5 159.5 244.5 152.5 246.5 145C248.5 137.5 247.5 138.5 247.5 130.5C247.5 124.1 258.833 73.1667 264.5 48.5C265.167 48.5 267.1 47.9 269.5 45.5C272.5 42.5 272 40.5 274 36C276 31.5 291.5 29.5 291 26C290.5 22.5 272.5 29 272 27.5C271.5 26 282 17 280.5 14.5C279 12 268.5 23.5 266.5 22.5C264.5 21.5001 276.5 8.5 274 6C271.5 3.5 261.5 18.5 260 18.5C258.5 18.5 263 2.00004 260 1.50004C257 1.00004 250 22.5 249 22.5C248 22.5 243.5 14.5 240 11.5C237.2 9.10001 232.833 10.5 231 11.5C232.667 13.1667 236.4 16.9 238 18.5C239.6 20.1 245 31.5 247.5 37C243.5 52.5 222.5 108 217 140C212.268 167.534 188.5 234.5 180.137 234.5C171.774 234.5 165.679 227.949 167.349 222.692C171.973 215.636 177.364 210.303 180.137 201.154C182.298 198.59 186.621 192 186.621 186.154C186.621 180.308 183.408 179.872 181.802 180.384C179.607 142.748 159.285 140 146.537 140C135.218 140 115.251 141.035 113.18 180.384C111.58 179.615 108.38 179.692 108.38 186.154C108.38 192.615 112.702 198.846 114.863 201.154C117.636 210.303 123.027 215.636 127.651 222.692C129.802 232.385 120 234.5 112.875 234.5C104.512 234.5 80.7442 167.534 76.0118 140C70.5118 108 49.5118 52.5 45.5118 37C48.0118 31.5 53.4118 20.1 55.0118 18.5L62.0118 11.5C60.1785 10.5 55.8118 9.10001 53.0118 11.5C49.5118 14.5 45.0118 22.5 44.0118 22.5C43.0118 22.5 36.0118 1.00004 33.0118 1.50004C30.0118 2.00004 34.5118 18.5 33.0118 18.5C31.5118 18.5 21.5118 3.5 19.0118 6C16.5118 8.5 28.5118 21.5001 26.5118 22.5C24.5118 23.5 14.0118 12 12.5118 14.5C11.0118 17 21.5118 26 21.0118 27.5C20.5118 29 2.51183 22.5 2.01183 26C1.51183 29.5 17.0118 31.5 19.0118 36C21.0118 40.5 20.5118 42.5 23.5118 45.5C25.9118 47.9 27.8452 48.5 28.5118 48.5C34.1785 73.1667 45.5118 124.1 45.5118 130.5C45.5118 138.5 44.5118 137.5 46.5118 145C48.5118 152.5 52.5118 159.5 53.5118 163.5C54.5118 167.5 59.5118 197.308 64.5118 210C69.5118 222.692 77.0118 282 78.5118 291.5C80.0118 301 87.5118 340 84.5118 362C82.1118 379.6 80.3452 411.333 78.5118 425" stroke="#EEEFFF" stroke-width="3"/>
</svg>
