<svg width="141" height="141" viewBox="0 0 141 141" fill="none" xmlns="http://www.w3.org/2000/svg">
<g id="Magnifying glass tilted right">
<g id="Rectangle 932">
<rect width="33.1042" height="53.7943" rx="5" transform="matrix(-0.707107 -0.707107 -0.707107 0.707107 64.2695 100.759)" fill="url(#paint0_linear_760_1802)"/>
<rect width="33.1042" height="53.7943" rx="5" transform="matrix(-0.707107 -0.707107 -0.707107 0.707107 64.2695 100.759)" fill="url(#paint1_linear_760_1802)"/>
<rect width="33.1042" height="53.7943" rx="5" transform="matrix(-0.707107 -0.707107 -0.707107 0.707107 64.2695 100.759)" fill="url(#paint2_linear_760_1802)"/>
<rect width="33.1042" height="53.7943" rx="5" transform="matrix(-0.707107 -0.707107 -0.707107 0.707107 64.2695 100.759)" fill="url(#paint3_radial_760_1802)"/>
</g>
<path id="Subtract" fill-rule="evenodd" clip-rule="evenodd" d="M84.1318 104.855C57.8195 104.855 36.4893 83.5247 36.4893 57.2124C36.4893 30.9001 57.8195 9.56982 84.1318 9.56982C110.444 9.56982 131.774 30.9001 131.774 57.2124C131.774 83.5247 110.444 104.855 84.1318 104.855ZM84.1318 97.144C62.0783 97.144 44.2002 79.266 44.2002 57.2124C44.2002 35.1588 62.0783 17.2808 84.1318 17.2808C106.185 17.2808 124.063 35.1588 124.063 57.2124C124.063 79.266 106.185 97.144 84.1318 97.144Z" fill="url(#paint4_linear_760_1802)"/>
<g id="Subtract_2">
<path fill-rule="evenodd" clip-rule="evenodd" d="M84.1311 103.778C58.4138 103.778 37.5659 82.9297 37.5659 57.2124C37.5659 31.4951 58.4138 10.6472 84.1311 10.6472C109.848 10.6472 130.696 31.4951 130.696 57.2124C130.696 82.9297 109.848 103.778 84.1311 103.778ZM84.1311 96.241C62.5763 96.241 45.1025 78.7672 45.1025 57.2124C45.1025 35.6575 62.5763 18.1838 84.1311 18.1838C105.686 18.1838 123.16 35.6575 123.16 57.2124C123.16 78.7672 105.686 96.241 84.1311 96.241Z" fill="url(#paint5_linear_760_1802)"/>
<path fill-rule="evenodd" clip-rule="evenodd" d="M84.1311 103.778C58.4138 103.778 37.5659 82.9297 37.5659 57.2124C37.5659 31.4951 58.4138 10.6472 84.1311 10.6472C109.848 10.6472 130.696 31.4951 130.696 57.2124C130.696 82.9297 109.848 103.778 84.1311 103.778ZM84.1311 96.241C62.5763 96.241 45.1025 78.7672 45.1025 57.2124C45.1025 35.6575 62.5763 18.1838 84.1311 18.1838C105.686 18.1838 123.16 35.6575 123.16 57.2124C123.16 78.7672 105.686 96.241 84.1311 96.241Z" fill="url(#paint6_radial_760_1802)"/>
</g>
<ellipse id="Ellipse 237" cx="40.9563" cy="40.9563" rx="40.9563" ry="40.9563" transform="matrix(-1 0 0 1 125.088 16.2561)" fill="url(#paint7_linear_760_1802)"/>
<g id="Ellipse 235">
<circle cx="39.9316" cy="39.9316" r="39.9316" transform="matrix(-1 0 0 1 124.063 17.2808)" fill="#64D0EA"/>
<circle cx="39.9316" cy="39.9316" r="39.9316" transform="matrix(-1 0 0 1 124.063 17.2808)" fill="url(#paint8_radial_760_1802)"/>
</g>
<ellipse id="Ellipse 236" cx="102.767" cy="40.2291" rx="7.27578" ry="8.95981" transform="rotate(-38.8957 102.767 40.2291)" fill="url(#paint9_linear_760_1802)"/>
</g>
<defs>
<linearGradient id="paint0_linear_760_1802" x1="2.77491" y1="45.6643" x2="21.8585" y2="8.08132" gradientUnits="userSpaceOnUse">
<stop stop-color="#A0659C"/>
<stop offset="1" stop-color="#895792"/>
</linearGradient>
<linearGradient id="paint1_linear_760_1802" x1="16.5034" y1="2.33677" x2="16.5521" y2="21.2256" gradientUnits="userSpaceOnUse">
<stop stop-color="#6C3B74"/>
<stop offset="1" stop-color="#845590" stop-opacity="0"/>
</linearGradient>
<linearGradient id="paint2_linear_760_1802" x1="33.5423" y1="36.7067" x2="10.8562" y2="36.0252" gradientUnits="userSpaceOnUse">
<stop offset="0.115168" stop-color="#703D7A"/>
<stop offset="1" stop-color="#703D7A" stop-opacity="0"/>
</linearGradient>
<radialGradient id="paint3_radial_760_1802" cx="0" cy="0" r="1" gradientUnits="userSpaceOnUse" gradientTransform="translate(16.7468 -0.827605) rotate(92.4424) scale(10.2814 23.8945)">
<stop stop-color="#2F1A3D"/>
<stop offset="1" stop-color="#532D64" stop-opacity="0"/>
</radialGradient>
<linearGradient id="paint4_linear_760_1802" x1="84.1318" y1="9.56982" x2="84.1318" y2="104.855" gradientUnits="userSpaceOnUse">
<stop offset="0.378529" stop-color="#344A7D"/>
<stop offset="0.633316" stop-color="#785790"/>
<stop offset="0.837142" stop-color="#785790"/>
<stop offset="1" stop-color="#9872A2"/>
</linearGradient>
<linearGradient id="paint5_linear_760_1802" x1="84.1311" y1="10.6472" x2="84.1311" y2="103.778" gradientUnits="userSpaceOnUse">
<stop stop-color="#475890"/>
<stop offset="1" stop-color="#7A4D87"/>
</linearGradient>
<radialGradient id="paint6_radial_760_1802" cx="0" cy="0" r="1" gradientUnits="userSpaceOnUse" gradientTransform="translate(84.1311 32.6337) rotate(-89.9999) scale(22.582 41.997)">
<stop offset="0.704268" stop-color="#566298"/>
<stop offset="0.786585" stop-color="#566298" stop-opacity="0"/>
</radialGradient>
<linearGradient id="paint7_linear_760_1802" x1="40.9563" y1="0" x2="40.9563" y2="81.9126" gradientUnits="userSpaceOnUse">
<stop stop-color="#204083"/>
<stop offset="1" stop-color="#523573"/>
</linearGradient>
<radialGradient id="paint8_radial_760_1802" cx="0" cy="0" r="1" gradientUnits="userSpaceOnUse" gradientTransform="translate(39.9316 42.2036) rotate(90) scale(48.4688)">
<stop offset="0.651103" stop-color="#33A2F3" stop-opacity="0"/>
<stop offset="1" stop-color="#33A2F3"/>
</radialGradient>
<linearGradient id="paint9_linear_760_1802" x1="102.767" y1="31.2693" x2="102.767" y2="49.1889" gradientUnits="userSpaceOnUse">
<stop stop-color="#DCDBF2"/>
<stop offset="0.209118" stop-color="#DCDBF2" stop-opacity="0.84797"/>
<stop offset="1" stop-color="#DCDBF2" stop-opacity="0"/>
</linearGradient>
</defs>
</svg>
