<svg width="167" height="287" viewBox="0 0 167 287" fill="none" xmlns="http://www.w3.org/2000/svg">
<path d="M5.83688 287C5.83709 244.308 -2.79647 159.154 5.83703 138.539C16.6289 112.769 45.5357 116.615 57.0984 108.539C66.3486 102.077 65.3208 89.9488 63.6506 84.6924C59.0272 77.6361 53.6361 72.3034 50.8628 63.1538C48.7017 60.8461 44.3794 54.6154 44.3794 48.1538C44.3794 41.6923 47.5794 41.6154 49.1795 42.3846C51.2508 3.03553 71.2174 2 82.5364 2C95.2851 2 115.607 4.74816 117.802 42.3846C119.408 41.8718 122.621 42.3077 122.621 48.1538C122.621 54 118.298 60.5897 116.137 63.1538C113.364 72.3034 107.973 77.6361 103.349 84.6924C101.679 89.9488 100.651 102.077 109.902 108.539C121.464 116.615 150.371 112.769 161.163 138.539C169.796 159.154 161.163 245.461 161.163 287" stroke="#EEEFFF" stroke-width="3"/>
</svg>
