<svg width="204" height="204" viewBox="0 0 204 204" fill="none" xmlns="http://www.w3.org/2000/svg">
<g id="Page with curl">
<g id="Rectangle 977">
<path d="M25.7246 19.7725C25.7246 16.2516 28.5788 13.3975 32.0996 13.3975H160.596C164.117 13.3975 166.971 16.2516 166.971 19.7725V177.853C166.971 184.894 161.262 190.603 154.221 190.603H51.2246C37.1413 190.603 25.7246 179.186 25.7246 165.103V19.7725Z" fill="url(#paint0_linear_760_1835)"/>
<path d="M25.7246 19.7725C25.7246 16.2516 28.5788 13.3975 32.0996 13.3975H160.596C164.117 13.3975 166.971 16.2516 166.971 19.7725V177.853C166.971 184.894 161.262 190.603 154.221 190.603H51.2246C37.1413 190.603 25.7246 179.186 25.7246 165.103V19.7725Z" fill="url(#paint1_radial_760_1835)"/>
<path d="M25.7246 19.7725C25.7246 16.2516 28.5788 13.3975 32.0996 13.3975H160.596C164.117 13.3975 166.971 16.2516 166.971 19.7725V177.853C166.971 184.894 161.262 190.603 154.221 190.603H51.2246C37.1413 190.603 25.7246 179.186 25.7246 165.103V19.7725Z" fill="url(#paint2_linear_760_1835)" fill-opacity="0.74"/>
<path d="M25.7246 19.7725C25.7246 16.2516 28.5788 13.3975 32.0996 13.3975H160.596C164.117 13.3975 166.971 16.2516 166.971 19.7725V177.853C166.971 184.894 161.262 190.603 154.221 190.603H51.2246C37.1413 190.603 25.7246 179.186 25.7246 165.103V19.7725Z" fill="url(#paint3_linear_760_1835)" fill-opacity="0.39"/>
<path d="M25.7246 19.7725C25.7246 16.2516 28.5788 13.3975 32.0996 13.3975H160.596C164.117 13.3975 166.971 16.2516 166.971 19.7725V177.853C166.971 184.894 161.262 190.603 154.221 190.603H51.2246C37.1413 190.603 25.7246 179.186 25.7246 165.103V19.7725Z" fill="url(#paint4_linear_760_1835)"/>
<path d="M25.7246 19.7725C25.7246 16.2516 28.5788 13.3975 32.0996 13.3975H160.596C164.117 13.3975 166.971 16.2516 166.971 19.7725V177.853C166.971 184.894 161.262 190.603 154.221 190.603H51.2246C37.1413 190.603 25.7246 179.186 25.7246 165.103V19.7725Z" fill="url(#paint5_linear_760_1835)"/>
<path d="M25.7246 19.7725C25.7246 16.2516 28.5788 13.3975 32.0996 13.3975H160.596C164.117 13.3975 166.971 16.2516 166.971 19.7725V177.853C166.971 184.894 161.262 190.603 154.221 190.603H51.2246C37.1413 190.603 25.7246 179.186 25.7246 165.103V19.7725Z" fill="url(#paint6_linear_760_1835)"/>
<path d="M25.7246 19.7725C25.7246 16.2516 28.5788 13.3975 32.0996 13.3975H160.596C164.117 13.3975 166.971 16.2516 166.971 19.7725V177.853C166.971 184.894 161.262 190.603 154.221 190.603H51.2246C37.1413 190.603 25.7246 179.186 25.7246 165.103V19.7725Z" fill="url(#paint7_linear_760_1835)"/>
<path d="M25.7246 19.7725C25.7246 16.2516 28.5788 13.3975 32.0996 13.3975H160.596C164.117 13.3975 166.971 16.2516 166.971 19.7725V177.853C166.971 184.894 161.262 190.603 154.221 190.603H51.2246C37.1413 190.603 25.7246 179.186 25.7246 165.103V19.7725Z" fill="url(#paint8_linear_760_1835)"/>
</g>
<g id="Union">
<path d="M82.5015 162.911C78.9807 162.911 76.1265 165.765 76.1265 169.286V169.863C76.1265 177.927 65.5908 188.691 54.8848 190.295V190.603H162.776C175.655 190.603 186.095 180.162 186.095 167.283C186.095 164.869 184.138 162.911 181.723 162.911H82.5015Z" fill="url(#paint9_linear_760_1835)"/>
<path d="M82.5015 162.911C78.9807 162.911 76.1265 165.765 76.1265 169.286V169.863C76.1265 177.927 65.5908 188.691 54.8848 190.295V190.603H162.776C175.655 190.603 186.095 180.162 186.095 167.283C186.095 164.869 184.138 162.911 181.723 162.911H82.5015Z" fill="url(#paint10_linear_760_1835)"/>
<path d="M82.5015 162.911C78.9807 162.911 76.1265 165.765 76.1265 169.286V169.863C76.1265 177.927 65.5908 188.691 54.8848 190.295V190.603H162.776C175.655 190.603 186.095 180.162 186.095 167.283C186.095 164.869 184.138 162.911 181.723 162.911H82.5015Z" fill="url(#paint11_radial_760_1835)"/>
<path d="M82.5015 162.911C78.9807 162.911 76.1265 165.765 76.1265 169.286V169.863C76.1265 177.927 65.5908 188.691 54.8848 190.295V190.603H162.776C175.655 190.603 186.095 180.162 186.095 167.283C186.095 164.869 184.138 162.911 181.723 162.911H82.5015Z" fill="url(#paint12_linear_760_1835)"/>
<path d="M82.5015 162.911C78.9807 162.911 76.1265 165.765 76.1265 169.286V169.863C76.1265 177.927 65.5908 188.691 54.8848 190.295V190.603H162.776C175.655 190.603 186.095 180.162 186.095 167.283C186.095 164.869 184.138 162.911 181.723 162.911H82.5015Z" fill="url(#paint13_linear_760_1835)"/>
<path d="M82.5015 162.911C78.9807 162.911 76.1265 165.765 76.1265 169.286V169.863C76.1265 177.927 65.5908 188.691 54.8848 190.295V190.603H162.776C175.655 190.603 186.095 180.162 186.095 167.283C186.095 164.869 184.138 162.911 181.723 162.911H82.5015Z" fill="url(#paint14_radial_760_1835)"/>
</g>
<path id="Union_2" fill-rule="evenodd" clip-rule="evenodd" d="M52.582 63.9492C52.2994 63.9492 52.0703 64.1783 52.0703 64.4609V69.9619C52.0703 70.2445 52.2994 70.4736 52.582 70.4736H140.261C140.543 70.4736 140.772 70.2445 140.772 69.9619V64.4609C140.772 64.1783 140.543 63.9492 140.261 63.9492H52.582ZM52.582 83.0742C52.2994 83.0742 52.0703 83.3033 52.0703 83.5859V89.0869C52.0703 89.3695 52.2994 89.5986 52.582 89.5986H140.261C140.543 89.5986 140.772 89.3695 140.772 89.0869V83.5859C140.772 83.3033 140.543 83.0742 140.261 83.0742H52.582ZM52.0703 102.711C52.0703 102.428 52.2994 102.199 52.582 102.199H140.261C140.543 102.199 140.772 102.428 140.772 102.711V108.212C140.772 108.495 140.543 108.724 140.261 108.724H52.582C52.2994 108.724 52.0703 108.495 52.0703 108.212V102.711ZM52.582 121.324C52.2994 121.324 52.0703 121.553 52.0703 121.836V127.337C52.0703 127.62 52.2994 127.849 52.582 127.849H108.784C109.067 127.849 109.296 127.62 109.296 127.337V121.836C109.296 121.553 109.067 121.324 108.784 121.324H52.582Z" fill="#9C96A2"/>
</g>
<defs>
<linearGradient id="paint0_linear_760_1835" x1="38.2754" y1="118.087" x2="162.189" y2="118.087" gradientUnits="userSpaceOnUse">
<stop stop-color="#EAE3F2"/>
<stop offset="0.829582" stop-color="#E0D9E7"/>
</linearGradient>
<radialGradient id="paint1_radial_760_1835" cx="0" cy="0" r="1" gradientUnits="userSpaceOnUse" gradientTransform="translate(53.6152 190.603) rotate(-90) scale(33.8672 86.8594)">
<stop offset="0.276471" stop-color="#EAE7ED"/>
<stop offset="1" stop-color="#EAE7EE" stop-opacity="0"/>
</radialGradient>
<linearGradient id="paint2_linear_760_1835" x1="166.593" y1="68.3156" x2="164.174" y2="68.3156" gradientUnits="userSpaceOnUse">
<stop stop-color="white"/>
<stop offset="1" stop-color="white" stop-opacity="0"/>
</linearGradient>
<linearGradient id="paint3_linear_760_1835" x1="100.853" y1="12.4701" x2="100.853" y2="15.4766" gradientUnits="userSpaceOnUse">
<stop stop-color="white"/>
<stop offset="1" stop-color="white" stop-opacity="0"/>
</linearGradient>
<linearGradient id="paint4_linear_760_1835" x1="24.6365" y1="43.9014" x2="27.4866" y2="43.9014" gradientUnits="userSpaceOnUse">
<stop stop-color="#BDB3C8"/>
<stop offset="1" stop-color="#BDB3C8" stop-opacity="0"/>
</linearGradient>
<linearGradient id="paint5_linear_760_1835" x1="29.4701" y1="184.535" x2="33.0956" y2="183.015" gradientUnits="userSpaceOnUse">
<stop stop-color="#BDB3C8"/>
<stop offset="1" stop-color="#BDB3C8" stop-opacity="0"/>
</linearGradient>
<linearGradient id="paint6_linear_760_1835" x1="35.7292" y1="188.434" x2="38.5752" y2="185.2" gradientUnits="userSpaceOnUse">
<stop stop-color="#BDB3C8"/>
<stop offset="1" stop-color="#BDB3C8" stop-opacity="0"/>
</linearGradient>
<linearGradient id="paint7_linear_760_1835" x1="46.0137" y1="193.673" x2="47.4367" y2="188.563" gradientUnits="userSpaceOnUse">
<stop stop-color="#BDB3C8"/>
<stop offset="1" stop-color="#BDB3C8" stop-opacity="0"/>
</linearGradient>
<linearGradient id="paint8_linear_760_1835" x1="54.1636" y1="191.862" x2="54.2929" y2="189.275" gradientUnits="userSpaceOnUse">
<stop stop-color="#BDB3C8"/>
<stop offset="1" stop-color="#BDB3C8" stop-opacity="0"/>
</linearGradient>
<linearGradient id="paint9_linear_760_1835" x1="120.49" y1="165.302" x2="120.49" y2="190.603" gradientUnits="userSpaceOnUse">
<stop stop-color="#DFD5EA"/>
<stop offset="1" stop-color="#C8B2DE"/>
</linearGradient>
<linearGradient id="paint10_linear_760_1835" x1="106.408" y1="191.599" x2="106.408" y2="184.028" gradientUnits="userSpaceOnUse">
<stop stop-color="#AB89CA"/>
<stop offset="1" stop-color="#C8B3DE" stop-opacity="0"/>
</linearGradient>
<radialGradient id="paint11_radial_760_1835" cx="0" cy="0" r="1" gradientUnits="userSpaceOnUse" gradientTransform="translate(87.0835 206.142) rotate(-24.3434) scale(108.018 50.7082)">
<stop offset="0.94891" stop-color="#E7DFEF" stop-opacity="0"/>
<stop offset="0.995179" stop-color="#FFFCFF"/>
</radialGradient>
<linearGradient id="paint12_linear_760_1835" x1="76.8919" y1="164.768" x2="78.4023" y2="166.531" gradientUnits="userSpaceOnUse">
<stop stop-color="#A8A1AE"/>
<stop offset="1" stop-color="#C6BFCD" stop-opacity="0"/>
</linearGradient>
<linearGradient id="paint13_linear_760_1835" x1="73.819" y1="167.959" x2="76.3165" y2="170.264" gradientUnits="userSpaceOnUse">
<stop stop-color="#A8A1AE"/>
<stop offset="1" stop-color="#C6BFCD" stop-opacity="0"/>
</linearGradient>
<radialGradient id="paint14_radial_760_1835" cx="0" cy="0" r="1" gradientUnits="userSpaceOnUse" gradientTransform="translate(66.5186 171.865) rotate(24.1022) scale(15.9951 75.7899)">
<stop stop-color="#A8A1AE"/>
<stop offset="1" stop-color="#C6BFCD" stop-opacity="0"/>
</radialGradient>
</defs>
</svg>
