<svg width="220" height="311" viewBox="0 0 220 311" fill="none" xmlns="http://www.w3.org/2000/svg">
<path d="M26.5002 154.5C32.3336 147.667 44.5002 133.2 46.5002 130C52.1002 122 56.1669 113.333 57.5002 110C54.1669 109.333 47.0002 107.8 45.0002 107C42.5002 106 45.5002 101.436 47.5002 100.5C49.1002 99.7515 51.5002 100.812 52.5002 101.436C52.1669 98.4571 51.7002 92.3 52.5002 91.5C53.3002 90.7 55.5002 93.5 56.5002 95C56.6669 94.1667 57.1002 92.3 57.5002 91.5C57.9002 90.7 59.6669 92.1667 60.5002 93C60.8336 92.1667 61.6002 90.4 62.0002 90C62.4002 89.6 64.5002 90.5 65.5002 91C65.5002 90.6667 66.0002 89.8 68.0002 89C68.9379 88.6249 70.2273 90.2193 71.6045 92.6224M43.4981 220.5C52.4313 208.855 64.6909 183.272 78.0002 118.5C78.8336 116 80.0002 110 78.0002 106C76.4379 102.875 73.8992 96.6264 71.6045 92.6224M43.4981 220.5C37.3294 228.541 32.7468 229.936 30.5002 233C24.0002 233 21.0002 231 13.5002 227C7.10819 223.591 2.6669 211.5 2.00023 207C6.41892 154.109 5.10529 123.296 13.5002 117C20.5338 111.725 32.4953 108.092 44.4998 104.148M43.4981 220.5C46.6655 226.667 51.9002 243.1 47.5002 259.5C43.1002 275.9 31.6669 298.333 26.5002 307.5M142.105 310C143.106 294.333 146.306 257.7 151.106 236.5C153.06 227.868 154.639 214.633 155.869 200.5M159.106 144.5C158.711 157.443 157.659 179.923 155.869 200.5M155.869 200.5C162.114 212.5 178.406 236.5 193.606 236.5C212.606 236.5 218.606 212.5 217.606 202.5C216.606 192.5 195.605 120.5 181.105 110C166.605 99.5 156.105 100.5 153.605 100.5C150.805 100.5 148.105 102.167 147.105 103C144.706 104.2 143.439 105.5 143.105 106C141.505 106.8 141.772 109.802 142.105 111.203M142.105 111.203C135.644 108.468 134.842 110.719 127 108.5C120.5 104 117.6 106.2 122 103C127.5 99 135 103.5 138 99.5C141 95.5 138.5 94 139.5 92.5C140.5 91 143.5 92 145 90C146.5 88 143 86.5 143.5 85C144 83.5 147.5 85 149 83.5C150.5 82 149 79.5 150 78C151 76.5 156.5 78.5 157.5 75C158.5 71.5 153 61 153 58.5C153 56.5 155.333 54.3333 156.5 53.5C156.666 51.3333 156.4 43.8 154 31C151 15 131.5 2 111 2C91.5002 2 77.0002 12.5 75.5002 41.5C74.0002 70.5 90.0002 65.5 80.5002 83.5C78.6295 87.0445 75.5179 90.0268 71.6045 92.6224M142.105 111.203C142.923 111.549 143.601 111.975 144.106 112.5C145.106 113.5 147.906 115.8 151.106 117C153.925 117.789 156.616 118.477 159.106 119.131M182.605 212C181.105 206.667 177.405 193 174.605 181C172.512 172.028 173.281 156.615 174.023 144.5M159.106 119.131C167.658 121.38 173.831 123.24 174.605 127.5C175.007 129.71 174.521 136.361 174.023 144.5M159.106 119.131C161.439 121.588 166.505 127.2 168.105 130C169.705 132.8 172.717 140.833 174.023 144.5" stroke="#EEEFFF" stroke-width="3"/>
</svg>
