<svg width="174" height="311" viewBox="0 0 174 311" fill="none" xmlns="http://www.w3.org/2000/svg">
<path d="M38.1052 214.5C41.2725 220.667 51.8998 243.1 47.4998 259.5C43.0998 275.9 31.6665 298.333 26.4998 307.5L38.1052 214.5ZM38.1052 214.5L47.4998 157M146.604 307.5C148.559 298.868 144.875 263.633 146.104 249.5C147.192 237 152.709 169.943 153.104 157M3.10504 305.5L1.9998 207C6.41849 154.109 5.10486 123.296 13.4998 117C20.5334 111.725 32.4949 108.092 44.4994 104.148C50.7013 101.932 64.8049 96.5245 71.6042 92.6224C75.5175 90.0268 78.6291 87.0445 80.4999 83.5C89.9999 65.5 73.9999 70.5 75.4999 41.5C76.9999 12.5 91.4998 2 110.999 2C131.499 2 150.999 15 153.999 31C156.399 43.8 156.666 51.3333 156.499 53.5C155.333 54.3333 152.999 56.5 152.999 58.5C152.999 61 158.499 71.5 157.499 75C156.499 78.5 151 76.5 150 78C149 79.5 150.5 82 149 83.5C147.5 85 144 83.5 143.5 85C143 86.5 146.5 88 145 90C143.5 92 140.5 91 139.5 92.5C138.5 94 141 95.5 138 99.5C135 103.5 127.5 99 122 103C117.6 106.2 119.605 106 127.105 107.5C137.105 109 152.105 110.5 159.605 114.5C162.94 116.279 167.296 125.142 168.105 130C168.605 133 172.104 222 172.104 227C171.604 260 169.605 247 166.605 310" stroke="#EEEFFF" stroke-width="3"/>
</svg>
