<svg width="174" height="311" viewBox="0 0 174 311" fill="none" xmlns="http://www.w3.org/2000/svg">
<path d="M135.999 214.5C132.832 220.667 122.205 243.1 126.605 259.5C131.005 275.9 142.438 298.333 147.605 307.5L135.999 214.5ZM135.999 214.5L126.605 157M27.5 307.5C25.5456 298.868 29.2298 263.633 28 249.5C26.9122 237 21.3952 169.943 21 157M170.999 305.5L172.105 207C167.686 154.109 169 123.296 160.605 117C153.571 111.725 141.61 108.092 129.605 104.148C123.403 101.932 109.3 96.5245 102.5 92.6224C98.5869 90.0268 95.4754 87.0445 93.6046 83.5C84.1046 65.5 100.105 70.5 98.6046 41.5C97.1046 12.5 82.6046 2 63.105 2C42.605 2 23.1051 15 20.1051 31C17.7051 43.8 17.4384 51.3333 17.6051 53.5C18.7717 54.3333 21.1051 56.5 21.1051 58.5C21.1051 61 15.6051 71.5 16.6051 75C17.6051 78.5 23.1047 76.5 24.1047 78C25.1047 79.5 23.6047 82 25.1047 83.5C26.6047 85 30.1047 83.5 30.6047 85C31.1047 86.5 27.6047 88 29.1047 90C30.6047 92 33.6047 91 34.6047 92.5C35.6047 94 33.1046 95.5 36.1046 99.5C39.1046 103.5 46.6046 99 52.1046 103C56.5046 106.2 54.4994 106 46.9994 107.5C36.9994 109 21.9994 110.5 14.4994 114.5C11.1647 116.279 6.80831 125.142 5.99938 130C5.49979 133 2 222 2 227C2.50062 260 4.49917 247 7.49917 310" stroke="#EEEFFF" stroke-width="3"/>
</svg>
