<svg width="220" height="311" viewBox="0 0 220 311" fill="none" xmlns="http://www.w3.org/2000/svg">
<path d="M193.605 154.5C187.772 147.667 175.605 133.2 173.605 130C168.005 122 163.939 113.333 162.605 110C165.939 109.333 173.105 107.8 175.105 107C177.605 106 174.605 101.436 172.605 100.5C171.005 99.7515 168.605 100.812 167.605 101.436C167.939 98.4571 168.405 92.3 167.605 91.5C166.805 90.7 164.605 93.5 163.605 95C163.439 94.1667 163.005 92.3 162.605 91.5C162.205 90.7 160.439 92.1667 159.605 93C159.272 92.1667 158.505 90.4 158.105 90C157.705 89.6 155.605 90.5 154.605 91C154.605 90.6667 154.105 89.8 152.105 89C151.168 88.6249 149.878 90.2193 148.501 92.6224M176.607 220.5C167.674 208.855 155.415 183.272 142.105 118.5C141.272 116 140.105 110 142.105 106C143.668 102.875 146.206 96.6264 148.501 92.6224M176.607 220.5C182.776 228.541 187.359 229.936 189.605 233C196.105 233 199.105 231 206.605 227C212.997 223.591 217.439 211.5 218.105 207C213.687 154.109 215 123.296 206.605 117C199.572 111.725 187.61 108.092 175.606 104.148M176.607 220.5C173.44 226.667 168.205 243.1 172.605 259.5C177.005 275.9 188.439 298.333 193.605 307.5M78 310C76.9998 294.333 73.7996 257.7 68.9996 236.5C67.0452 227.868 65.4665 214.633 64.2367 200.5M60.9996 144.5C61.3948 157.443 62.4461 179.923 64.2367 200.5M64.2367 200.5C57.991 212.5 41.6996 236.5 26.4996 236.5C7.49958 236.5 1.49958 212.5 2.49958 202.5C3.49958 192.5 24.5 120.5 39 110C53.5 99.5 64.0004 100.5 66.5 100.5C69.3 100.5 72 102.167 73 103C75.3997 104.2 76.6665 105.5 77 106C78.6 106.8 78.3333 109.802 78 111.203M78 111.203C84.4619 108.468 85.2637 110.719 93.1053 108.5C99.6053 104 102.505 106.2 98.1053 103C92.6053 99 85.1053 103.5 82.1053 99.5C79.1053 95.5 81.6053 94 80.6053 92.5C79.6053 91 76.6053 92 75.1053 90C73.6053 88 77.1053 86.5 76.6053 85C76.1053 83.5 72.6053 85 71.1053 83.5C69.6053 82 71.1053 79.5 70.1053 78C69.1053 76.5 63.6057 78.5 62.6057 75C61.6057 71.5 67.1057 61 67.1057 58.5C67.1057 56.5 64.7723 54.3333 63.6057 53.5C63.439 51.3333 63.7057 43.8 66.1057 31C69.1057 15 88.6057 2 109.106 2C128.605 2 143.105 12.5 144.605 41.5C146.105 70.5 130.105 65.5 139.605 83.5C141.476 87.0445 144.588 90.0268 148.501 92.6224M78 111.203C77.1826 111.549 76.5049 111.975 75.9996 112.5C74.9997 113.5 72.1999 115.8 68.9996 117C66.181 117.789 63.4895 118.477 60.9996 119.131M37.5 212C39 206.667 42.7 193 45.5 181C47.5935 172.028 46.8248 156.615 46.0829 144.5M60.9996 119.131C52.4477 121.38 46.2745 123.24 45.5 127.5C45.0982 129.71 45.5844 136.361 46.0829 144.5M60.9996 119.131C58.6664 121.588 53.6 127.2 52 130C50.4 132.8 47.3886 140.833 46.0829 144.5" stroke="#EEEFFF" stroke-width="3"/>
</svg>
