<svg width="238" height="251" viewBox="0 0 238 251" fill="none" xmlns="http://www.w3.org/2000/svg">
<path d="M80.4222 99.0433L80.4222 106.543M19.4222 230.543C22.9222 219.543 51.4222 176.043 56.9222 166.043C61.3222 158.043 74.4222 125.71 80.4222 110.543L80.4222 106.543M196.922 168.543C193.492 170.201 187.754 175.055 180.923 181.595M129.922 236.543C142.245 222.23 164.678 197.146 180.923 181.595M199.923 128.543C195.756 126.043 185.08 118.312 175.712 107.388C172.84 96.4758 177.763 89.8347 182.437 86.9076C190.528 84.5191 198.089 83.9413 206.124 78.7596C209.265 78.3985 216.592 76.4445 220.773 71.5179C224.953 66.5913 222.563 64.4621 220.846 64.0133C244.727 32.6712 230.173 18.9623 221.543 11.6385C211.823 3.38948 194.55 -7.66449 168.524 19.6118C167.631 18.1814 164.9 16.4351 161.117 20.8925C157.335 25.3499 156.366 33.171 156.355 36.5243C152.549 45.2949 153.209 52.8491 152.169 61.2208C150.041 66.3092 142.977 76.2214 131.743 75.1628C120.686 73.4673 107.922 71.4358 102.922 70.6319M199.923 128.543C197.922 122.21 194.322 109.543 195.922 109.543C197.522 109.543 199.256 111.543 199.923 112.543C199.589 111.043 199.322 107.912 200.922 107.388C202.522 106.863 204.589 108.606 205.422 109.543C205.656 109.21 206.483 108.743 207.922 109.543C209.36 110.343 210.521 113.21 210.922 114.543C211.255 114.043 212.622 113.343 215.422 114.543C218.222 115.743 226.589 134.043 230.422 143.043C232.422 143.877 236.322 146.343 235.922 149.543C235.522 152.743 228.755 150.21 225.422 148.543C226.922 176.377 227.822 234.043 219.422 242.043C208.922 252.043 185.922 248.044 183.422 246.044C180.922 244.044 182.437 238.543 183.422 235.543C183.782 234.446 183.544 229.332 183.098 223.043M199.923 128.543C202.922 140.043 207.825 144.043 206.124 152.543C204.422 161.043 188.922 189.543 186.922 199.043C185.322 206.643 183.706 218.21 183.098 223.043M180.923 181.595C180.923 184.244 180.923 190.543 180.923 194.543C180.923 197.714 182.324 212.144 183.098 223.043M80.4222 106.543C78.9221 108.71 75.5219 113.343 73.9219 114.543C71.9219 116.043 40.4219 123.543 30.4219 127.043M30.4219 127.043C20.4219 130.543 19.4219 132.543 17.9219 132.543C16.4219 132.543 11.4219 132.043 7.92188 129.543C4.42187 127.043 -1.07813 115.043 2.92187 104.543C6.92187 94.0435 21.4219 88.0434 29.4219 84.5434C35.8219 81.7435 70.7552 67.3768 87.4219 60.5435C86.0885 59.7101 83.5219 57.4435 83.9219 55.0435C84.3219 52.6435 89.7552 53.0435 92.4219 53.5435C98.2552 53.8768 110.922 54.8435 114.922 56.0435C118.922 57.2435 121.589 58.5435 122.422 59.0435L125.922 60.5435C127.589 60.8768 130.922 61.8435 130.922 63.0435C130.922 64.5435 135.422 65.5435 133.922 67.5435C132.567 69.3499 112.04 68.2036 102.922 70.6319M30.4219 127.043C51.4219 109.75 94.8219 74.4389 100.422 71.5435C101.099 71.1932 101.945 70.8921 102.922 70.6319" stroke="#EEEFFF" stroke-width="3"/>
</svg>
