<svg width="235" height="225" viewBox="0 0 235 225" fill="none" xmlns="http://www.w3.org/2000/svg">
<path d="M177.845 224C202.844 187.5 207.849 186.766 211.237 164.674C215.473 137.06 188.805 125.261 183.154 112.339C178.633 102 185.837 92.1895 190.004 88.5763C197.629 84.9681 205.01 83.2308 212.149 76.8716C215.197 76.0302 222.135 72.9692 225.506 67.4565C228.876 61.9439 226.186 60.2089 224.42 60.0305C243.18 25.3793 226.686 14.0799 217.029 8.17521C206.152 1.5246 187.381 -6.73219 165.875 24.2326C164.772 22.9572 161.804 21.6531 158.754 26.6408C155.705 31.6284 155.954 39.5053 156.461 42.8202C154.054 52.0729 155.871 59.4349 156.135 67.8668C154.817 73.2226 149.367 84.1059 138.105 84.793C124.027 85.652 101.371 67.2909 78.7212 83.6462C60.6012 96.7304 22.9431 174.867 1.27386 210.306" stroke="#EEEFFF" stroke-width="3"/>
</svg>
