<svg width="238" height="250" viewBox="0 0 238 250" fill="none" xmlns="http://www.w3.org/2000/svg">
<path d="M157.578 98.4998L157.578 106M218.578 230C215.078 219 186.578 175.5 181.078 165.5C176.678 157.5 163.578 125.167 157.578 110L157.578 106M41.0778 168C44.5084 169.658 50.2456 174.512 57.0773 181.051M108.078 236C95.7551 221.686 73.3221 196.602 57.0773 181.051M38.0773 128C42.244 125.5 52.9195 117.769 62.2883 106.844C65.1602 95.9324 60.2374 89.2912 55.5628 86.3641C47.472 83.9756 39.911 83.3979 31.8764 78.2162C28.7354 77.855 21.4083 75.9011 17.2274 70.9744C13.0465 66.0478 15.4366 63.9186 17.1543 63.4698C-6.72689 32.1277 7.82672 18.4189 16.4569 11.095C26.1773 2.84602 43.4502 -8.20794 69.4756 19.0683C70.3685 17.638 73.1 15.8916 76.8828 20.349C80.6655 24.8064 81.6337 32.6275 81.6451 35.9809C85.4507 44.7515 84.7908 52.3057 85.8313 60.6773C87.959 65.7657 95.0229 75.678 106.257 74.6193C117.314 72.9239 130.078 70.8923 135.078 70.0885M38.0773 128C40.0776 121.667 43.6781 109 42.0781 109C40.4781 109 38.7442 111 38.0773 112C38.4109 110.5 38.6781 107.369 37.0781 106.844C35.4781 106.32 33.4115 108.063 32.5781 109C32.3442 108.667 31.5167 108.2 30.0781 109C28.6395 109.8 27.4787 112.667 27.0781 114C26.7448 113.5 25.3781 112.8 22.5781 114C19.7781 115.2 11.4115 133.5 7.57812 142.5C5.57812 143.333 1.67813 145.8 2.07813 149C2.47813 152.2 9.2446 149.667 12.5778 148C11.078 175.833 10.1782 233.5 18.5782 241.5C29.0782 251.5 52.0777 247.5 54.5779 245.5C57.0782 243.5 55.5628 238 54.5779 235C54.2176 233.902 54.4555 228.789 54.9021 222.5M38.0773 128C35.0781 139.5 30.1746 143.5 31.8764 152C33.5781 160.5 49.0781 189 51.0781 198.5C52.6781 206.1 54.2941 217.667 54.9021 222.5M57.0773 181.051C57.0773 183.701 57.0773 190 57.0773 194C57.0773 197.17 55.6762 211.6 54.9021 222.5M157.578 106C159.078 108.167 162.478 112.8 164.078 114C166.078 115.5 197.578 123 207.578 126.5M207.578 126.5C217.578 130 218.578 132 220.078 132C221.578 132 226.578 131.5 230.078 129C233.578 126.5 239.078 114.5 235.078 104C231.078 93.5 216.578 87.5 208.578 84C202.178 81.2 167.245 66.8333 150.578 60C151.911 59.1667 154.478 56.9 154.078 54.5C153.678 52.1 148.245 52.5 145.578 53C139.745 53.3333 127.078 54.3 123.078 55.5C119.078 56.7 116.411 58 115.578 58.5L112.078 60C110.411 60.3333 107.078 61.3 107.078 62.5C107.078 64 102.578 65 104.078 67C105.433 68.8065 125.96 67.6602 135.078 70.0885M207.578 126.5C186.578 109.206 143.178 73.8955 137.578 71C136.901 70.6498 136.055 70.3486 135.078 70.0885" stroke="#EEEFFF" stroke-width="3"/>
</svg>
