<svg width="236" height="225" viewBox="0 0 236 225" fill="none" xmlns="http://www.w3.org/2000/svg">
<path d="M57.499 224C32.4997 187.5 27.4951 186.766 24.1064 164.674C19.8705 137.06 46.5387 125.261 52.19 112.339C56.711 102 49.5072 92.1895 45.3402 88.5763C37.7148 84.9681 30.3335 83.2308 23.1944 76.8716C20.1468 76.0302 13.2089 72.9692 9.8381 67.4565C6.46733 61.9439 9.15731 60.2089 10.9237 60.0305C-7.83624 25.3793 8.65798 14.0799 18.3148 8.17521C29.1914 1.5246 47.9628 -6.73219 69.4685 24.2326C70.5714 22.9572 73.5397 21.6531 76.5894 26.6408C79.6392 31.6284 79.3893 39.5053 78.8831 42.8202C81.2901 52.0729 79.4726 59.4349 79.2092 67.8668C80.5263 73.2226 85.9764 84.1059 97.2389 84.793C111.317 85.652 133.973 67.2909 156.623 83.6462C174.743 96.7304 212.401 174.867 234.07 210.306" stroke="#EEEFFF" stroke-width="3"/>
</svg>
